#N canvas 2875 453 1136 770 12;
#X obj 324 109 inlet;
#X obj 393 109 inlet;
#X obj 324 142 tgl 19 0 empty empty empty 0 -10 0 12 #fcfcfc #000000 #000000 0 1;
#X obj 324 166 t f b;
#X obj 324 213 metro 0.25 120 permin;
#X obj 324 274 f;
#X obj 365 274 + 1;
#X msg 342 242 0;
#X text 373 242 Reset;
#X floatatom 393 133 5 0 0 0 - - - 0;
#X msg 393 156 tempo \$1 permin;
#X text 435 134 BPM;
#X obj 324 298 % 16;
#X obj 324 322 outlet;
#X connect 0 0 2 0;
#X connect 1 0 9 0;
#X connect 2 0 3 0;
#X connect 3 0 4 0;
#X connect 3 1 7 0;
#X connect 4 0 5 0;
#X connect 5 0 6 0;
#X connect 5 0 12 0;
#X connect 6 0 5 1;
#X connect 7 0 5 1;
#X connect 9 0 10 0;
#X connect 10 0 4 0;
#X connect 12 0 13 0;
