#N canvas 133 225 2313 1010 12;
#N canvas 469 242 450 278 (subpatch) 0;
#X array \$0-stepskick 16 float 3;
#A 0 2 2 0 0 0 0 0 2 0 0 2 2 0 0 0 0;
#X coords 0 6 16 -0 297 196 1 0 0;
#X restore 161 85 graph;
#N canvas 0 22 450 278 (subpatch) 0;
#X array \$0-stepssnare 16 float 3;
#A 0 0 0 0 0 2 0 0 0 0 0 0 0 2 0 0 0;
#X coords 0 6 16 -0 297 195 2 0 0;
#X restore 498 86 graph;
#N canvas 0 22 450 278 (subpatch) 0;
#X array \$0-stepshat 16 float 3;
#A 0 2 0 2 0 2 0 2 0 2 0 2 0 2 0 2 0;
#X coords 0 6 16 -0 296 194 1 0 0;
#X restore 831 85 graph;
#X obj 145 65 cnv 19 1000 850 empty empty empty 20 12 0 12 #606060 #404040 0;
#X obj 497 84 cnv 19 300 200 empty empty empty 20 12 0 12 #ff8300 #404040 0;
#N canvas 2560 36 1920 1016 backend 1;
#X obj 94 92 counter;
#X obj 94 51 tgl 19 0 empty empty empty 0 -10 0 12 #fcfcfc #000000 #000000 0 1;
#X floatatom 138 52 5 40 200 0 - - - 0;
#X text 181 54 BPM;
#X floatatom 477 108 5 0 0 0 - - - 0;
#X obj 477 131 + 0.5;
#X obj 477 155 int;
#X floatatom 477 179 5 0 0 0 - - - 0;
#X msg 807 15 1;
#X obj 477 210 select 0 1 2 3 4 5 6;
#X obj 72 507 kick;
#X obj 354 451 snare;
#X obj 883 482 hat, f 21;
#X floatatom 83 402 5 0 1 0 - - - 0;
#X floatatom 370 383 5 0 1 0 - - - 0;
#X floatatom 991 429 5 0 1 0 - - - 0;
#X obj 465 670 +~;
#X obj 465 985 dac~;
#X obj 639 211 select 0 1 2 3 4 5 6;
#X obj 476 59 array get \$0-stepskick;
#X obj 664 58 array get \$0-stepssnare;
#X floatatom 664 99 5 0 0 0 - - - 0;
#X obj 664 122 + 0.5;
#X obj 664 146 int;
#X floatatom 664 170 5 0 0 0 - - - 0;
#X obj 836 214 select 0 1 2 3 4 5 6;
#X floatatom 861 102 5 0 0 0 - - - 0;
#X obj 861 125 + 0.5;
#X obj 861 149 int;
#X floatatom 861 173 5 0 0 0 - - - 0;
#X obj 861 61 array get \$0-stepshat;
#X text 65 427 Kick Volume;
#X obj 120 488 r kickdecay;
#X obj 408 432 r snaredecay;
#X obj 370 347 r snarevol;
#X obj 84 369 r kickvol;
#X obj 1058 463 r hatdecay;
#X obj 883 436 r hathip1;
#X obj 919 457 r hathip2;
#X obj 1027 410 r hatvol;
#X obj 94 116 s bpm;
#X obj 476 22 r arrayseq;
#X obj 37 37 r start;
#X floatatom 477 582 5 0 0 0 - - - 0;
#X obj 467 515 *~ 0.9;
#X obj 485 556 r snaredelay;
#X obj 531 507 r snaredelfeedback;
#X floatatom 531 532 5 0 0.9 0 - - - 0;
#X obj 1345 596 *~ 0.9;
#X floatatom 1408 555 5 0 0.9 0 - - - 0;
#X obj 1123 590 r hatdelay;
#X floatatom 1123 614 5 0 0 0 - - - 0;
#N canvas 507 502 1130 666 reverb 0;
#X obj 222 328 rev2~ \$1 \$2 \$3 \$4, f 29;
#X floatatom 271 269 5 0 100 0 - - - 0;
#X floatatom 322 272 5 0 100 0 - - - 0;
#X obj 269 235 r srevlevel;
#X obj 361 227 r srevfeedback;
#X obj 532 232 r srevdamp;
#X floatatom 407 271 5 0 100 0 - - - 0;
#X obj 186 163 inlet~;
#X obj 223 401 outlet~;
#X obj 611 309 loadbang;
#X msg 611 333 0;
#X connect 0 0 8 0;
#X connect 1 0 0 1;
#X connect 2 0 0 2;
#X connect 3 0 1 0;
#X connect 4 0 2 0;
#X connect 5 0 6 0;
#X connect 6 0 0 4;
#X connect 7 0 0 0;
#X connect 7 1 0 0;
#X connect 9 0 10 0;
#X connect 10 0 1 0;
#X connect 10 0 2 0;
#X restore 354 496 pd reverb;
#N canvas 507 502 1130 666 reverb 0;
#X obj 222 328 rev2~ \$1 \$2 \$3 \$4, f 29;
#X floatatom 271 269 5 0 100 0 - - - 0;
#X floatatom 322 272 5 0 100 0 - - - 0;
#X floatatom 407 271 5 0 100 0 - - - 0;
#X obj 186 163 inlet~;
#X obj 223 401 outlet~;
#X obj 268 235 r krevlevel;
#X obj 361 227 r krevfeedback;
#X obj 532 232 r krevdamp;
#X obj 611 309 loadbang;
#X msg 611 333 0;
#X connect 0 0 5 0;
#X connect 1 0 0 1;
#X connect 2 0 0 2;
#X connect 3 0 0 4;
#X connect 4 0 0 0;
#X connect 4 1 0 0;
#X connect 6 0 1 0;
#X connect 7 0 2 0;
#X connect 8 0 3 0;
#X connect 9 0 10 0;
#X connect 10 0 1 0;
#X connect 10 0 2 0;
#X restore 72 555 pd reverb;
#N canvas 507 502 1130 666 reverb 0;
#X obj 222 328 rev2~ \$1 \$2 \$3 \$4, f 29;
#X floatatom 271 269 5 0 100 0 - - - 0;
#X floatatom 322 272 5 0 100 0 - - - 0;
#X floatatom 407 271 5 0 100 0 - - - 0;
#X obj 186 163 inlet~;
#X obj 223 401 outlet~;
#X obj 269 235 r hrevlevel;
#X obj 361 227 r hrevfeedback;
#X obj 532 232 r hrevdamp;
#X obj 611 309 loadbang;
#X msg 611 333 0;
#X connect 0 0 5 0;
#X connect 1 0 0 1;
#X connect 2 0 0 2;
#X connect 3 0 0 4;
#X connect 4 0 0 0;
#X connect 4 1 0 0;
#X connect 6 0 1 0;
#X connect 7 0 2 0;
#X connect 8 0 3 0;
#X connect 9 0 10 0;
#X connect 10 0 2 0;
#X connect 10 0 1 0;
#X restore 885 648 pd reverb;
#X floatatom 90 802 5 0 0 0 - - - 0;
#X obj 70 694 *~ 0.9;
#X floatatom 109 733 5 0 0.9 0 - - - 0;
#X obj 155 715 r kickdelfeedback;
#X obj 98 776 r kickdelay;
#N canvas 0 22 450 278 (subpatch) 0;
#X coords 0 1 100 -1 200 140 1;
#X restore 19 12 graph;
#X obj 138 22 r bpmcount;
#X obj 1344 506 delwrite~ hatdelay 1000;
#X obj 1408 530 r hatdelfeedback;
#X obj 1123 648 delread~ hatdelay 500;
#X obj 467 469 delwrite~ snaredelay 1000;
#X obj 467 608 delread~ snaredelay 500;
#X obj 70 644 delwrite~ kickdelay 1000;
#X obj 73 754 delread~ kickdelay 500;
#X obj 465 746 hip~;
#X obj 465 787 lop~;
#X obj 465 872 bp~, f 7;
#X floatatom 490 719 5 0 20000 0 - - - 0;
#X floatatom 521 769 5 0 500 0 - - - 0;
#X floatatom 511 849 5 0 50 0 - - - 0;
#X floatatom 487 829 5 0 20000 0 - - - 0;
#X obj 487 800 r centerfreq;
#X obj 565 831 r bpQ;
#X obj 521 745 r lopfreq;
#X obj 490 690 r hipfreq;
#N canvas 1216 371 1130 666 reverb 0;
#X obj 222 328 rev2~ \$1 \$2 \$3 \$4, f 29;
#X floatatom 271 269 5 0 100 0 - - - 0;
#X floatatom 322 272 5 0 0.9 0 - - - 0;
#X floatatom 407 271 5 0 100 0 - - - 0;
#X obj 172 130 inlet~;
#X obj 223 401 outlet~;
#X obj 269 235 r mrevlevel;
#X obj 362 227 r mrevfeedback;
#X obj 532 232 r mrevdamp;
#X connect 0 0 5 0;
#X connect 1 0 0 1;
#X connect 2 0 0 2;
#X connect 3 0 0 4;
#X connect 4 0 0 0;
#X connect 4 1 0 0;
#X connect 6 0 1 0;
#X connect 7 0 2 0;
#X connect 8 0 3 0;
#X restore 581 890 pd reverb;
#X obj 465 953 *~;
#X floatatom 507 935 5 0 100 0 - - - 0;
#X obj 465 909 +~;
#X obj 575 914 r mainvol;
#N canvas 1358 586 1202 729 presets 1;
#X obj 176 98 array set \$0-stepskick;
#X msg 176 74 2 0 2 0 0 0 0 0 0 0 2 2 0 0 0 2;
#X msg 423 74 0 0 0 0 2 0 0 2 0 2 2 0 2 0 0 2;
#X obj 427 101 array set \$0-stepssnare;
#X msg 661 75 2 0 2 0 2 0 2 0 2 0 2 0 2 0 2 0;
#X obj 662 103 array set \$0-stepshat;
#X obj 177 181 array set \$0-stepskick;
#X obj 428 184 array set \$0-stepssnare;
#X obj 663 186 array set \$0-stepshat;
#X obj 179 243 array set \$0-stepskick;
#X obj 430 246 array set \$0-stepssnare;
#X obj 665 248 array set \$0-stepshat;
#X obj 179 321 array set \$0-stepskick;
#X obj 477 324 array set \$0-stepssnare;
#X obj 766 326 array set \$0-stepshat;
#X obj 188 463 array set \$0-stepskick;
#X obj 439 466 array set \$0-stepssnare;
#X obj 674 468 array set \$0-stepshat;
#X msg 177 157 2 2 0 0 0 0 0 2 0 0 2 0 0 0 2 0;
#X msg 424 157 0 0 0 0 2 0 0 0 0 0 0 0 2 0 2 0;
#X msg 662 158 2 0 2 0 2 0 2 0 2 0 2 0 2 0 2 0;
#X msg 179 219 2 0 0 0 2 0 0 0 2 0 0 0 2 0 0 0;
#X msg 426 219 0 0 0 0 2 0 0 0 0 0 0 0 2 0 0 0;
#X msg 664 220 0 2 2 0 2 0 2 2 0 2 2 0 2 0 2 0;
#X msg 179 297 2 0 0 0 0 2 0 0 0 0 2 2 0 0 0 0 2 0 0 0;
#X msg 473 297 0 2 0 0 2 0 0 2 0 0 0 0 2 0 0 0 0 0 0 0;
#X msg 767 298 0 0 2 2 0 0 2 0 0 0 2 0 0 2 2 2 0 0 2 0;
#X msg 188 439 2 0 0 0 0 0 0 0 2 0 0 0 0 0 2 0;
#X msg 435 439 0 0 0 0 2 0 0 0 0 0 0 0 2 0 0 0;
#X msg 673 440 2 2 2 2 2 2 2 2 2 2 2 2 2 2 2;
#X obj 144 17 r amenbreak;
#X obj 257 18 r kickgroove;
#X obj 378 18 r house;
#X obj 457 20 r ukgarage;
#X obj 556 21 r rock;
#X obj 144 41 bng 19 250 50 0 empty empty empty 0 -10 0 12 #fcfcfc #000000 #000000;
#X obj 257 42 bng 19 250 50 0 empty empty empty 0 -10 0 12 #fcfcfc #000000 #000000;
#X obj 378 42 bng 19 250 50 0 empty empty empty 0 -10 0 12 #fcfcfc #000000 #000000;
#X obj 457 44 bng 19 250 50 0 empty empty empty 0 -10 0 12 #fcfcfc #000000 #000000;
#X obj 556 45 bng 19 250 50 0 empty empty empty 0 -10 0 12 #fcfcfc #000000 #000000;
#X obj 189 558 array set \$0-stepskick;
#X obj 440 561 array set \$0-stepssnare;
#X obj 675 563 array set \$0-stepshat;
#X msg 436 534 0 0 0 0 2 0 0 0 0 0 0 0 2 0 0 0;
#X obj 634 19 r ledzep;
#X obj 634 43 bng 19 250 50 0 empty empty empty 0 -10 0 12 #fcfcfc #000000 #000000;
#X msg 189 534 2 2 0 0 0 0 0 2 0 0 2 2 0 0 0 0;
#X msg 674 535 2 0 2 0 2 0 2 0 2 0 2 0 2 0 2 0;
#X obj 191 635 array set \$0-stepskick;
#X obj 442 638 array set \$0-stepssnare;
#X obj 677 640 array set \$0-stepshat;
#X msg 438 611 0 0 0 0 2 0 0 0 0 0 0 0 2 0 0 0;
#X msg 676 612 2 0 2 0 2 0 2 0 2 0 2 0 2 0 2 0;
#X msg 191 611 2 0 2 0 0 0 0 0 0 0 2 2 0 0 0 2;
#X connect 1 0 0 0;
#X connect 2 0 3 0;
#X connect 4 0 5 0;
#X connect 18 0 6 0;
#X connect 19 0 7 0;
#X connect 20 0 8 0;
#X connect 21 0 9 0;
#X connect 22 0 10 0;
#X connect 23 0 11 0;
#X connect 24 0 12 0;
#X connect 25 0 13 0;
#X connect 26 0 14 0;
#X connect 27 0 15 0;
#X connect 28 0 16 0;
#X connect 29 0 17 0;
#X connect 30 0 35 0;
#X connect 31 0 36 0;
#X connect 32 0 37 0;
#X connect 33 0 38 0;
#X connect 34 0 39 0;
#X connect 35 0 1 0;
#X connect 35 0 2 0;
#X connect 35 0 4 0;
#X connect 36 0 18 0;
#X connect 36 0 19 0;
#X connect 36 0 20 0;
#X connect 37 0 21 0;
#X connect 37 0 22 0;
#X connect 37 0 23 0;
#X connect 38 0 24 0;
#X connect 38 0 25 0;
#X connect 38 0 26 0;
#X connect 39 0 27 0;
#X connect 39 0 28 0;
#X connect 39 0 29 0;
#X connect 43 0 41 0;
#X connect 44 0 45 0;
#X connect 45 0 46 0;
#X connect 45 0 43 0;
#X connect 45 0 47 0;
#X connect 46 0 40 0;
#X connect 47 0 42 0;
#X connect 51 0 49 0;
#X connect 52 0 50 0;
#X connect 53 0 48 0;
#X restore 20 159 pd presets;
#X obj 1242 36 loadbang;
#X msg 1242 60 0;
#X obj 649 726 loadbang;
#X msg 647 750 350;
#N canvas 678 682 1218 515 sampleloader 1;
#X msg 52 55 read -resize Guitar.wav audioData1 audioData2;
#X obj 154 236 tabplay~ audioData1;
#X obj 310 231 tabplay~ audioData2;
#X obj 239 333 *~;
#X obj 310 336 *~;
#X floatatom 283 288 5 0 1 0 - - - 0;
#X msg 469 188 stop;
#X obj 366 184 bng 19 250 50 0 empty empty empty 0 -10 0 12 #fcfcfc #000000 #000000;
#X obj 52 79 soundfiler;
#X obj 269 400 s~ guitar;
#X obj 529 272 r stopguitar;
#X obj 365 161 r startguitar;
#X obj 386 17 loadbang;
#N canvas 0 22 450 278 (subpatch) 0;
#X array audioData1 2.08801e+07 float 2;
#X coords 0 1 2.08801e+07 -1 200 140 1 0 0;
#X restore 749 92 graph;
#N canvas 0 22 450 278 (subpatch) 0;
#X array audioData2 2.08801e+07 float 2;
#X coords 0 1 2.08801e+07 -1 200 140 1 0 0;
#X restore 972 92 graph;
#X obj 384 278 r volumeguitar;
#X connect 0 0 8 0;
#X connect 1 0 3 0;
#X connect 2 0 4 0;
#X connect 3 0 9 0;
#X connect 5 0 3 1;
#X connect 5 0 4 0;
#X connect 6 0 2 0;
#X connect 6 0 1 0;
#X connect 7 0 2 0;
#X connect 7 0 1 0;
#X connect 10 0 6 0;
#X connect 11 0 7 0;
#X connect 12 0 0 0;
#X connect 15 0 5 0;
#X restore 21 185 pd sampleloader;
#X obj 700 932 r~ guitar;
#X connect 0 0 40 0;
#X connect 1 0 0 0;
#X connect 2 0 0 1;
#X connect 4 0 5 0;
#X connect 5 0 6 0;
#X connect 6 0 7 0;
#X connect 7 0 9 0;
#X connect 8 0 19 1;
#X connect 8 0 20 1;
#X connect 8 0 30 1;
#X connect 9 1 10 0;
#X connect 9 2 10 0;
#X connect 9 3 10 0;
#X connect 9 4 10 0;
#X connect 9 5 10 0;
#X connect 9 6 10 0;
#X connect 9 7 10 0;
#X connect 10 0 16 0;
#X connect 10 0 53 0;
#X connect 10 0 67 0;
#X connect 11 0 16 0;
#X connect 11 0 52 0;
#X connect 11 0 65 0;
#X connect 12 0 16 0;
#X connect 12 0 54 0;
#X connect 12 0 62 0;
#X connect 13 0 10 1;
#X connect 14 0 11 1;
#X connect 15 0 12 3;
#X connect 16 0 69 0;
#X connect 18 1 11 0;
#X connect 18 2 11 0;
#X connect 18 3 11 0;
#X connect 18 4 11 0;
#X connect 18 5 11 0;
#X connect 18 6 11 0;
#X connect 18 7 11 0;
#X connect 19 0 4 0;
#X connect 20 0 21 0;
#X connect 21 0 22 0;
#X connect 22 0 23 0;
#X connect 23 0 24 0;
#X connect 24 0 18 0;
#X connect 25 1 12 2;
#X connect 25 2 12 2;
#X connect 25 3 12 2;
#X connect 25 4 12 2;
#X connect 25 5 12 2;
#X connect 25 6 12 2;
#X connect 25 7 12 2;
#X connect 26 0 27 0;
#X connect 27 0 28 0;
#X connect 28 0 29 0;
#X connect 29 0 25 0;
#X connect 30 0 26 0;
#X connect 32 0 10 2;
#X connect 33 0 11 2;
#X connect 34 0 14 0;
#X connect 35 0 13 0;
#X connect 36 0 12 4;
#X connect 37 0 12 0;
#X connect 38 0 12 1;
#X connect 39 0 15 0;
#X connect 41 0 19 0;
#X connect 41 0 20 0;
#X connect 41 0 30 0;
#X connect 42 0 1 0;
#X connect 43 0 66 0;
#X connect 44 0 65 0;
#X connect 45 0 43 0;
#X connect 46 0 47 0;
#X connect 47 0 44 1;
#X connect 48 0 62 0;
#X connect 49 0 48 1;
#X connect 50 0 51 0;
#X connect 51 0 64 0;
#X connect 52 0 16 0;
#X connect 53 0 16 0;
#X connect 54 0 16 0;
#X connect 55 0 68 0;
#X connect 56 0 67 0;
#X connect 57 0 56 1;
#X connect 58 0 57 0;
#X connect 59 0 55 0;
#X connect 61 0 2 0;
#X connect 63 0 49 0;
#X connect 64 0 16 0;
#X connect 64 0 48 0;
#X connect 66 0 16 0;
#X connect 66 0 44 0;
#X connect 68 0 56 0;
#X connect 68 0 16 0;
#X connect 69 0 70 0;
#X connect 70 0 71 0;
#X connect 71 0 80 0;
#X connect 71 0 83 0;
#X connect 72 0 69 1;
#X connect 73 0 70 1;
#X connect 74 0 71 2;
#X connect 75 0 71 1;
#X connect 76 0 75 0;
#X connect 77 0 74 0;
#X connect 78 0 73 0;
#X connect 79 0 72 0;
#X connect 80 0 83 1;
#X connect 81 0 17 0;
#X connect 81 0 17 1;
#X connect 82 0 81 1;
#X connect 83 0 81 0;
#X connect 84 0 82 0;
#X connect 86 0 87 0;
#X connect 87 0 43 0;
#X connect 87 0 47 0;
#X connect 87 0 51 0;
#X connect 87 0 49 0;
#X connect 87 0 55 0;
#X connect 87 0 57 0;
#X connect 88 0 89 0;
#X connect 89 0 73 0;
#X connect 91 0 17 1;
#X connect 91 0 17 0;
#X coords 0 1016 1 1015 85 60 0;
#X restore 2 4 pd backend;
#X obj 494 288 hradio 19 1 0 16 arrayseq bpm empty 0 -10 0 12 #0e4345 #00ff04 #ff8300 0;
#X obj 161 83 cnv 19 300 200 empty empty empty 20 12 0 12 #ff8300 #404040 0;
#X obj 159 288 hradio 19 1 0 16 arrayseq bpm empty 0 -10 0 12 #0e4345 #00ff04 #ff8300 0;
#X obj 830 83 cnv 19 300 200 empty empty empty 20 12 0 12 #ff8300 #404040 0;
#X obj 828 287 hradio 19 1 0 16 arrayseq bpm empty 0 -10 0 12 #0e4345 #00ff04 #ff8300 0;
#X obj 160 404 cnv 19 300 175 empty empty empty 20 12 0 12 #535512 #404040 0;
#N canvas 0 22 450 278 (subpatch) 0;
#X coords 0 1 100 -1 321 516 1 0 0;
#X restore 149 67 graph;
#N canvas 0 22 450 278 (subpatch) 0;
#X coords 0 1 100 -1 320 515 1;
#X restore 486 68 graph;
#N canvas 0 22 450 278 (subpatch) 0;
#X coords 0 1 100 -1 321 516 1;
#X restore 820 67 graph;
#X obj 168 489 hsl 280 19 0 100 0 0 krevlevel empty Reverb\ Level 100 10 0 12 #0e4345 #00ff04 #00ff04 0 1;
#X obj 168 520 hsl 280 19 0 100 0 0 krevfeedback empty Reverb\ Feedback 100 10 0 12 #0e4345 #00ff04 #00ff04 0 1;
#X obj 168 551 hsl 280 19 0 100 0 0 krevdamp empty Dampening 100 10 0 12 #0e4345 #00ff04 #00ff04 0 1;
#X obj 167 431 hsl 280 19 0 1500 0 0 kickdelay empty Delay 100 10 0 12 #0e4345 #00ff04 #00ff04 0 1;
#X obj 167 461 hsl 280 19 0 0.9 0 0 kickdelfeedback empty Delay\ Feedback 100 10 0 12 #0e4345 #00ff04 #00ff04 0 1;
#X text 293 405 FX;
#N canvas 0 22 450 278 (subpatch) 0;
#X coords 0 1 100 -1 303 178 1;
#X restore 828 402 graph;
#X obj 496 403 cnv 19 300 175 empty empty empty 20 12 0 12 #535512 #404040 0;
#X obj 506 488 hsl 280 19 0 100 0 0 srevlevel empty Reverb\ Level 100 10 0 12 #0e4345 #00ff04 #00ff04 0 1;
#X obj 506 519 hsl 280 19 0 100 0 0 srevfeedback empty Reverb\ Feedback 100 10 0 12 #0e4345 #00ff04 #00ff04 0 1;
#X obj 506 550 hsl 280 19 0 100 0 0 srevdamp empty Dampening 100 10 0 12 #0e4345 #00ff04 #00ff04 0 1;
#X obj 505 430 hsl 280 19 0 1500 0 0 snaredelay empty Delay 100 10 0 12 #0e4345 #00ff04 #00ff04 0 1;
#X obj 505 460 hsl 280 19 0 0.9 0 0 snaredelfeedback empty Delay\ Feedback 100 10 0 12 #0e4345 #00ff04 #00ff04 0 1;
#X text 628 404 FX;
#X obj 829 403 cnv 19 300 175 empty empty empty 20 12 0 12 #535512 #404040 0;
#X obj 839 490 hsl 280 19 0 100 0 0 hrevlevel empty Reverb\ Level 100 10 0 12 #0e4345 #00ff04 #00ff04 0 1;
#X obj 839 521 hsl 280 19 0 100 0 0 hrevfeedback empty Reverb\ Feedback 100 10 0 12 #0e4345 #00ff04 #00ff04 0 1;
#X obj 839 552 hsl 280 19 0 100 0 0 hrevdamp empty Dampening 100 10 0 12 #0e4345 #00ff04 #00ff04 0 1;
#X obj 838 432 hsl 280 19 0 1500 0 0 hatdelay empty Delay 100 10 0 12 #0e4345 #00ff04 #00ff04 0 1;
#X obj 838 462 hsl 280 19 0 0.9 0 0 hatdelfeedback empty Delay\ Feedback 100 10 0 12 #0e4345 #00ff04 #00ff04 0 1;
#X text 961 404 FX;
#N canvas 0 22 450 278 (subpatch) 0;
#X coords 0 1 100 -1 303 178 1;
#X restore 495 403 graph;
#N canvas 0 22 450 278 (subpatch) 0;
#X coords 0 1 100 -1 303 178 1;
#X restore 159 403 graph;
#X obj 829 307 cnv 19 300 90 empty empty empty 20 12 0 12 #535512 #404040 0;
#X obj 840 328 hsl 280 19 0 1 0 0 hatvol empty Volume 100 10 0 12 #0e4345 #ff0400 #ff0400 0 1;
#X obj 841 354 hsl 280 19 0.01 2000 1 0 hatdecay empty Decay 100 10 0 12 #0e4345 #ff0400 #ff0400 0 1;
#X obj 496 308 cnv 19 300 90 empty empty empty 20 12 0 12 #535512 #404040 0;
#X obj 506 371 hsl 280 19 0.01 5000 1 0 snarefreq empty Osc\ Freq 100 10 0 12 #0e4345 #ff0400 #ff0400 0 1;
#X obj 506 318 hsl 280 19 0 1 0 0 snarevol empty Volume 100 10 0 12 #0e4345 #ff0400 #ff0400 0 1;
#X obj 506 345 hsl 280 19 0.01 2000 1 0 snaredecay empty Decay 100 10 0 12 #0e4345 #ff0400 #ff0400 0 1;
#X obj 160 308 cnv 19 300 90 empty empty empty 20 12 0 12 #535512 #404040 0;
#X obj 171 371 hsl 280 19 0.01 1000 1 0 kickfq empty Osc\ Freq 100 10 0 12 #0e4345 #ff0400 #ff0400 0 1;
#X obj 171 317 hsl 280 19 0 1 0 0 kickvol empty Volume 100 10 0 12 #0e4345 #ff0400 #ff0400 0 1;
#X obj 171 344 hsl 280 19 0.01 2000 1 0 kickdecay empty Decay 100 10 0 12 #0e4345 #ff0400 #ff0400 0 1;
#N canvas 0 22 450 278 (subpatch) 0;
#X coords 0 1 100 -1 304 92 1;
#X restore 827 307 graph;
#N canvas 0 22 450 278 (subpatch) 0;
#X coords 0 1 100 -1 304 92 1;
#X restore 494 307 graph;
#N canvas 0 22 450 278 (subpatch) 0;
#X coords 0 1 100 -1 304 92 1;
#X restore 158 307 graph;
#N canvas 0 22 450 278 (subpatch) 0;
#X coords 0 1 100 -1 992 156 1 0 0;
#X restore 149 583 graph;
#X obj 612 592 cnv 19 440 140 empty empty empty 20 12 0 12 #551312 #404040 0;
#N canvas 0 22 450 278 (subpatch) 0;
#X coords 0 1 100 -1 446 145 1 0 0;
#X restore 159 590 graph;
#X obj 162 593 cnv 19 440 140 empty empty empty 20 12 0 12 #551312 #404040 0;
#X obj 206 633 hsl 150 19 0 3000 0 0 snarehip1 empty HPF\ 1 55 10 0 12 #0e4345 #00ff04 #00ff04 0 1;
#X obj 207 663 hsl 150 19 0 1000 0 0 snarehip2 empty HPF\ 2 55 10 0 12 #0e4345 #00ff04 #00ff04 0 1;
#N canvas 0 22 450 278 (subpatch) 0;
#X coords 0 1 100 -1 992 168 1 0 0;
#X restore 149 743 graph;
#N canvas 0 22 450 278 (subpatch) 0;
#X coords 0 1 100 -1 446 145 1 0 0;
#X restore 609 590 graph;
#X text 352 596 Snare Filter;
#X text 805 593 Hat Filter;
#X obj 402 646 hsl 150 19 0 20000 0 0 snarevcffreq empty VCF 55 10 0 12 #0e4345 #00ff04 #00ff04 0 1;
#X obj 402 676 hsl 150 19 0 50 0 0 snarevcfq empty VCF\ Q 55 10 0 12 #0e4345 #00ff04 #00ff04 0 1;
#N canvas 0 22 450 278 (subpatch) 0;
#X coords 0 1 100 -1 81 145 1;
#X restore 1057 590 graph;
#X text 259 84 Kick Sequencer;
#X text 595 84 Snare Sequencer;
#X text 952 85 Hat Sequencer;
#X obj 206 692 hsl 150 19 0 1000 0 0 snarelop empty LPF 55 10 0 12 #0e4345 #00ff04 #00ff04 0 1;
#X obj 666 646 hsl 150 19 0 20000 0 0 hatvcffreq empty VCF 55 10 0 12 #0e4345 #00ff04 #00ff04 0 1;
#X obj 666 676 hsl 150 19 0 50 0 0 hatvcfq empty VCF\ Q 55 10 0 12 #0e4345 #00ff04 #00ff04 0 1;
#X obj 858 628 hsl 150 19 0 3000 0 0 hathip1 empty HPF\ 1 55 10 0 12 #0e4345 #00ff04 #00ff04 0 1;
#X obj 859 658 hsl 150 19 0 1000 0 0 hathip2 empty HPF\ 2 55 10 0 12 #0e4345 #00ff04 #00ff04 0 1;
#X obj 858 687 hsl 150 19 0 1000 0 0 hatlop empty LPF 55 10 0 12 #0e4345 #00ff04 #00ff04 0 1;
#X obj 1059 593 cnv 19 78 140 empty empty empty 20 12 0 12 #0e4345 #404040 0;
#X obj 1059 611 bng 15 250 50 0 amenbreak empty Preset\ 1 23 8 0 12 #2f004d #00ff04 #00ff04;
#X obj 1059 632 bng 15 250 50 0 kickgroove empty Preset\ 2 23 8 0 12 #2f004d #00ff04 #00ff04;
#X obj 1059 653 bng 15 250 50 0 house empty Preset\ 3 23 8 0 12 #2f004d #00ff04 #00ff04;
#X obj 1059 674 bng 15 250 50 0 ukgarage empty Preset\ 4 23 8 0 12 #2f004d #00ff04 #00ff04;
#X obj 1059 694 bng 15 250 50 0 rock empty Preset\ 5 23 8 0 12 #2f004d #00ff04 #00ff04;
#X obj 1059 715 bng 15 250 50 0 ledzep empty Preset\ 6 23 8 0 12 #2f004d #00ff04 #00ff04;
#X text 1059 591 Drum Preset;
#X obj 665 754 cnv 19 466 148 empty empty empty 20 12 0 12 #535512 #404040 0;
#X text 863 759 GLOBAL FX;
#X obj 692 797 hsl 200 19 0.01 100 1 0 mrevlevel empty Reverb\ Level 60 10 0 12 #0e4345 #00ff04 #00ff04 0 1;
#X obj 692 828 hsl 200 19 0.01 0.9 1 0 mrevfeedback empty Reverb\ Feedback 50 10 0 12 #0e4345 #00ff04 #00ff04 0 1;
#X obj 692 859 hsl 200 19 0 100 0 0 mrevdamp empty Dampening 70 10 0 12 #0e4345 #00ff04 #00ff04 0 1;
#X obj 912 786 hsl 200 19 0.01 20000 1 0 hipfreq empty HPF 80 10 0 12 #0e4345 #00ff04 #00ff04 0 1;
#X obj 912 817 hsl 200 19 0 500 0 0 lopfreq empty LPF 80 10 0 12 #0e4345 #00ff04 #00ff04 0 1;
#X obj 912 846 hsl 200 19 0 20000 0 0 centerfreq empty BPF 80 10 0 12 #0e4345 #00ff04 #00ff04 0 1;
#X obj 913 875 hsl 200 19 0 50 0 0 bpQ empty BPF\ Q 80 10 0 12 #0e4345 #00ff04 #00ff04 0 1;
#N canvas 0 22 450 278 (subpatch) 0;
#X coords 0 1 100 -1 470 152 2 0 0;
#X restore 663 752 graph;
#X obj 260 807 tgl 19 0 start empty START -6 30 0 12 #0e4345 #00ff04 #00ff04 0 1;
#X obj 161 754 cnv 19 466 148 empty empty empty 20 12 0 12 #551312 #404040 0;
#X obj 256 855 hsl 280 19 0 100 0 0 mainvol empty Main\ Volume 100 10 0 12 #0e4345 #00ff04 #00ff04 0 1;
#X text 343 756 Main Mixer;
#X obj 352 810 hsl 200 19 40 200 0 0 bpmcount empty BPM 80 10 0 12 #0e4345 #00ff04 #00ff04 0 1;
#N canvas 0 22 450 278 (subpatch) 0;
#X coords 0 1 100 -1 470 152 2 0 0;
#X restore 159 752 graph;
#X obj 263 808 tgl 19 0 start empty Start -5 30 0 12 #0e4345 #00ff04 #00ff04 0 1;
#X floatatom 556 828 5 0 0 0 - - - 0;
#X obj 1149 67 cnv 19 225 85 empty empty empty 20 12 0 12 #606060 #404040 0;
#X text 1211 70 Melody Player;
#X obj 1159 101 bng 19 250 50 0 startguitar empty START -7 30 0 12 #0e4345 #00ff04 #00ff04;
#X obj 1198 101 bng 19 250 50 0 stopguitar empty STOP -7 30 0 12 #0e4345 #00ff04 #00ff04;
#X obj 1232 101 hsl 130 19 0 1 0 0 volumeguitar empty Volume 35 10 0 12 #0e4345 #00ff04 #00ff04 0 1;
#N canvas 0 22 450 278 (subpatch) 0;
#X coords 0 1 100 -1 229 89 1;
#X restore 1147 65 graph;
#X connect 96 0 99 0;
#X coords 0 -1 1 1 85 60 1 0 0;
