#N canvas 913 684 774 458 12;
#X obj 82 55 noise~;
#X obj 82 79 hip~ 20000;
#X obj 82 103 hip~ 10000;
#X obj 198 157 *~;
#X obj 216 119 vline~;
#X obj 331 19 inlet;
#X obj 376 19 inlet;
#X obj 331 43 bng 19 250 50 0 empty empty empty 0 -10 0 12 #fcfcfc #000000 #000000;
#X obj 331 67 f;
#X obj 386 92 t f b;
#X obj 386 177 *;
#X obj 437 110 random 10;
#X obj 437 134 / 20;
#X obj 437 158 + 0.7;
#X obj 199 412 outlet~;
#X floatatom 155 45 5 0 0 0 - - - 0;
#X obj 49 21 inlet;
#X floatatom 206 45 5 0 0 0 - - - 0;
#X obj 248 17 loadbang;
#X msg 248 41 10000;
#X msg 284 41 20000;
#X msg 216 95 \$1 \, 0 \$2 1;
#X obj 386 201 pack f f;
#X obj 466 219 inlet;
#X floatatom 466 243 5 0 0 0 - - - 0;
#X obj 579 200 loadbang;
#X msg 579 224 40;
#X text 95 20 HIP1;
#X obj 147 13 inlet;
#X text 193 12 HIP2;
#X obj 199 306 vcf~, f 8;
#X floatatom 225 243 5 0 0 0 - - - 0;
#X obj 225 266 sig~ 200;
#X floatatom 286 288 5 0 0 0 - - - 0;
#X obj 199 352 lop~;
#X floatatom 259 334 5 0 0 0 - - - 0;
#X obj 408 318 loadbang;
#X msg 408 342 20000;
#X obj 227 213 r hatvcffreq;
#X obj 315 266 r hatvcfQ;
#X obj 305 315 r hatlop;
#X connect 0 0 1 0;
#X connect 1 0 2 0;
#X connect 2 0 3 0;
#X connect 3 0 30 0;
#X connect 4 0 3 1;
#X connect 5 0 7 0;
#X connect 6 0 8 1;
#X connect 7 0 8 0;
#X connect 8 0 9 0;
#X connect 9 0 10 0;
#X connect 9 1 11 0;
#X connect 10 0 22 0;
#X connect 11 0 12 0;
#X connect 12 0 13 0;
#X connect 13 0 10 1;
#X connect 15 0 1 1;
#X connect 16 0 15 0;
#X connect 17 0 2 1;
#X connect 18 0 20 0;
#X connect 18 0 19 0;
#X connect 19 0 2 1;
#X connect 20 0 1 1;
#X connect 21 0 4 0;
#X connect 22 0 21 0;
#X connect 23 0 24 0;
#X connect 24 0 22 1;
#X connect 25 0 26 0;
#X connect 26 0 24 0;
#X connect 28 0 17 0;
#X connect 30 0 34 0;
#X connect 31 0 32 0;
#X connect 32 0 30 1;
#X connect 33 0 30 2;
#X connect 34 0 14 0;
#X connect 35 0 34 1;
#X connect 36 0 37 0;
#X connect 37 0 35 0;
#X connect 38 0 31 0;
#X connect 40 0 35 0;
