#N canvas 3334 658 592 439 12;
#X obj 199 25 inlet;
#X obj 199 49 bng 19 250 50 0 empty empty empty 0 -10 0 12 #fcfcfc #000000 #000000;
#X obj 200 231 osc~;
#X obj 200 285 *~;
#X obj 324 43 inlet;
#X obj 324 153 vline~;
#X obj 200 309 outlet~;
#X msg 199 98 \$1 \, 50 70 0;
#X floatatom 199 73 5 0 250 0 - - - 0;
#X obj 115 35 loadbang;
#X msg 115 67 150;
#X text 240 72 Freq;
#X obj 200 122 vline~;
#X text 368 42 Volume;
#X obj 324 76 pack f f;
#X obj 448 43 inlet;
#X floatatom 448 67 5 0 0 0 - - - 0;
#X msg 324 129 \$1 1 0 \, 0 \$2 1;
#X obj 524 21 loadbang;
#X msg 524 45 100;
#X text 447 20 Decay;
#X obj 79 147 r kickfq;
#X connect 0 0 1 0;
#X connect 1 0 8 0;
#X connect 1 0 14 0;
#X connect 2 0 3 0;
#X connect 3 0 6 0;
#X connect 4 0 14 0;
#X connect 5 0 3 1;
#X connect 7 0 12 0;
#X connect 8 0 7 0;
#X connect 9 0 10 0;
#X connect 10 0 8 0;
#X connect 12 0 2 0;
#X connect 14 0 17 0;
#X connect 15 0 16 0;
#X connect 16 0 14 1;
#X connect 17 0 5 0;
#X connect 18 0 19 0;
#X connect 19 0 16 0;
#X connect 21 0 8 0;
