#N canvas 2741 286 1461 858 12;
#X obj 178 102 counter;
#X obj 178 61 tgl 19 0 empty empty empty 0 -10 0 12 #fcfcfc #000000 #000000 0 1;
#X floatatom 226 60 5 0 0 0 - - - 0;
#X text 265 64 BPM;
#X obj 179 177 hradio 19 1 0 16 empty empty empty 0 -10 0 12 #0e4345 #00ff04 #ff8300 0;
#X floatatom 157 352 5 0 0 0 - - - 0;
#X obj 157 375 + 0.5;
#X obj 157 399 int;
#X floatatom 157 423 5 0 0 0 - - - 0;
#N canvas 0 22 450 278 (subpatch) 0;
#X array \$0-stepskick 16 float 3;
#A 0 0.685714 0.0857143 0.6 0.642857 0.128572 -0.0428572 1.15714 5.57143 1.02857 -0.0857143 0.642857 0.642857 0.0428572 0.642857 0.0428572 0.128572;
#X coords 0 6 16 -0 200 140 2 0 0;
#X restore 741 21 graph;
#X msg 766 389 0 2 3 4 5 6 0 1 2 3 4 5 6 0 1 2;
#X msg 646 88 1;
#X obj 157 454 select 0 1 2 3 4 5 6;
#X obj 141 562 kick;
#X obj 374 586 snare;
#X obj 632 573 hat, f 21;
#X floatatom 65 544 5 0 1 0 - - - 0;
#X floatatom 308 534 5 0 1 0 - - - 0;
#X floatatom 676 492 5 0 1 0 - - - 0;
#X obj 375 640 +~;
#X obj 375 664 dac~;
#X obj 319 455 select 0 1 2 3 4 5 6;
#X obj 765 424 array set \$0-stepskick;
#X obj 156 303 array get \$0-stepskick;
#N canvas 0 22 450 278 (subpatch) 0;
#X array \$0-stepssnare 16 float 3;
#A 0 0.342857 0.0428567 0.642857 -0.385715 0.9 -0.557144 0.642857 -0.514287 -0.214286 0.428571 -0.0857148 0.857143 0.3 -0.0857148 0.3 -0.128572;
#X coords 0 6 16 -0 200 140 1 0 0;
#X restore 997 13 graph;
#X obj 344 302 array get \$0-stepssnare;
#X floatatom 344 343 5 0 0 0 - - - 0;
#X obj 344 366 + 0.5;
#X obj 344 390 int;
#X floatatom 344 414 5 0 0 0 - - - 0;
#N canvas 0 22 450 278 (subpatch) 0;
#X array \$0-stepshat 16 float 3;
#A 0 -0.171429 0.471428 0.771429 0.171429 0.128572 0.685714 0.685714 0.685714 0.214286 0.728571 0.0428572 0.728571 0.0857143 0.771429 0.0428572 0.685714;
#X coords 0 6 16 -0 200 140 1 0 0;
#X restore 1232 18 graph;
#X obj 516 458 select 0 1 2 3 4 5 6;
#X floatatom 541 346 5 0 0 0 - - - 0;
#X obj 541 369 + 0.5;
#X obj 541 393 int;
#X floatatom 541 417 5 0 0 0 - - - 0;
#X obj 541 305 array get \$0-stepshat;
#X obj 935 423 array set \$0-stepssnare;
#X obj 1101 420 array set \$0-stepshat;
#X text 46 563 Kick Volume;
#X obj 207 543 r kickdecay;
#X obj 455 546 r snaredecay;
#X obj 288 505 r snarevol;
#X obj 65 505 r kickvol;
#X obj 805 554 r hatdecay;
#X obj 631 604 r hathip1;
#X obj 669 629 r hathip2;
#X obj 738 473 r hatvol;
#X obj 178 126 s bpm;
#X obj 168 267 r arrayseq;
#X obj 378 105 r bpm;
#X connect 0 0 48 0;
#X connect 1 0 0 0;
#X connect 2 0 0 1;
#X connect 5 0 6 0;
#X connect 6 0 7 0;
#X connect 7 0 8 0;
#X connect 8 0 12 0;
#X connect 10 0 22 0;
#X connect 10 0 37 0;
#X connect 10 0 38 0;
#X connect 11 0 23 1;
#X connect 11 0 25 1;
#X connect 11 0 36 1;
#X connect 12 1 13 0;
#X connect 12 2 13 0;
#X connect 12 3 13 0;
#X connect 12 4 13 0;
#X connect 12 5 13 0;
#X connect 12 6 13 0;
#X connect 12 7 13 0;
#X connect 13 0 19 0;
#X connect 14 0 19 0;
#X connect 15 0 19 0;
#X connect 16 0 13 1;
#X connect 17 0 14 1;
#X connect 18 0 15 3;
#X connect 19 0 20 0;
#X connect 19 0 20 1;
#X connect 21 1 14 0;
#X connect 21 2 14 0;
#X connect 21 3 14 0;
#X connect 21 4 14 0;
#X connect 21 5 14 0;
#X connect 21 6 14 0;
#X connect 21 7 14 0;
#X connect 23 0 5 0;
#X connect 25 0 26 0;
#X connect 26 0 27 0;
#X connect 27 0 28 0;
#X connect 28 0 29 0;
#X connect 29 0 21 0;
#X connect 31 1 15 2;
#X connect 31 2 15 2;
#X connect 31 3 15 2;
#X connect 31 4 15 2;
#X connect 31 5 15 2;
#X connect 31 6 15 2;
#X connect 31 7 15 2;
#X connect 32 0 33 0;
#X connect 33 0 34 0;
#X connect 34 0 35 0;
#X connect 35 0 31 0;
#X connect 36 0 32 0;
#X connect 40 0 13 2;
#X connect 41 0 14 2;
#X connect 42 0 17 0;
#X connect 43 0 16 0;
#X connect 44 0 15 4;
#X connect 45 0 15 0;
#X connect 46 0 15 1;
#X connect 47 0 18 0;
#X connect 49 0 23 0;
#X connect 49 0 25 0;
#X connect 49 0 36 0;
#X coords 0 0 1 1 85 60 0;
