#N canvas 1262 417 1052 770 12;
#X obj 178 102 counter;
#X obj 178 61 tgl 19 0 empty empty empty 0 -10 0 12 #fcfcfc #000000 #000000 0 1;
#X floatatom 224 65 5 0 0 0 - - - 0;
#X text 265 64 BPM;
#X obj 178 148 hradio 19 1 0 8 empty empty empty 0 -10 0 12 #0e4345 #00ff04 #ff8300 0;
#X floatatom 179 221 5 0 0 0 - - - 0;
#X obj 179 244 + 0.5;
#X obj 179 268 int;
#X floatatom 179 292 5 0 0 0 - - - 0;
#X obj 428 191 hradio 19 1 0 8 empty empty empty 0 -10 0 12 #fcfcfc #000000 #000000 0;
#X obj 218 416 tgl 19 0 empty empty empty 0 -10 0 12 #0e4345 #00ff04 #000000 0 1;
#X obj 237 416 tgl 19 0 empty empty empty 0 -10 0 12 #fcfcfc #000000 #000000 0 1;
#X obj 256 416 tgl 19 0 empty empty empty 0 -10 0 12 #fcfcfc #000000 #000000 0 1;
#X obj 650 370 tgl 19 0 empty empty empty 0 -10 0 12 #fcfcfc #000000 #000000 0 1;
#X obj 669 370 tgl 19 0 empty empty empty 0 -10 0 12 #fcfcfc #000000 #000000 0 1;
#X obj 688 370 tgl 19 0 empty empty empty 0 -10 0 12 #fcfcfc #000000 #000000 0 1;
#X obj 707 370 tgl 19 0 empty empty empty 0 -10 0 12 #fcfcfc #000000 #000000 0 1;
#X obj 726 370 tgl 19 0 empty empty empty 0 -10 0 12 #fcfcfc #000000 #000000 0 1;
#X obj 593 390 tgl 19 0 empty empty empty 0 -10 0 12 #fcfcfc #000000 #000000 0 1;
#X obj 612 390 tgl 19 0 empty empty empty 0 -10 0 12 #fcfcfc #000000 #000000 0 1;
#X obj 631 390 tgl 19 0 empty empty empty 0 -10 0 12 #fcfcfc #000000 #000000 0 1;
#X obj 650 390 tgl 19 0 empty empty empty 0 -10 0 12 #fcfcfc #000000 #000000 0 1;
#X obj 669 390 tgl 19 0 empty empty empty 0 -10 0 12 #fcfcfc #000000 #000000 0 1;
#X obj 688 390 tgl 19 0 empty empty empty 0 -10 0 12 #fcfcfc #000000 #000000 0 1;
#X obj 707 390 tgl 19 0 empty empty empty 0 -10 0 12 #fcfcfc #000000 #000000 0 1;
#X obj 726 390 tgl 19 0 empty empty empty 0 -10 0 12 #fcfcfc #000000 #000000 0 1;
#N canvas 0 22 450 278 (subpatch) 0;
#X array \$0-steps 16 float 3;
#A 0 2.52857 1.37143 3.04286 2.27143 0.342854 1.75714 3.47143 0.342854 1.2 2.95714 4.84286 3.38571 0.385712 5.05714 0.471427 2.74286;
#X coords 0 6 16 -0 200 140 1 0 0;
#X restore 622 47 graph;
#X obj 632 264 array set \$0-steps;
#X msg 633 229 0 2 3 4 5 6 0 1 2 3 4 5 6 0 1 2;
#X obj 178 172 array get \$0-steps;
#X msg 300 117 1;
#X obj 173 521 kick;
#X obj 227 523 snare;
#X obj 288 524 hat;
#X floatatom 235 285 5 0 0 0 - - - 0;
#X floatatom 293 285 5 0 0 0 - - - 0;
#X floatatom 346 284 5 0 0 0 - - - 0;
#X obj 221 587 +~;
#X obj 221 611 dac~;
#X obj 196 366 sel 0;
#X obj 254 367 sel 1;
#X obj 311 367 sel 2;
#X obj 365 367 sel 3;
#X obj 422 369 sel 4;
#X obj 474 371 sel 5;
#X obj 530 369 sel 6;
#X obj 196 390 bng 19 250 50 0 empty empty empty 0 -10 0 12 #fcfcfc #000000 #000000;
#X obj 168 446 spigot;
#X obj 168 470 bng 19 250 50 0 empty empty empty 0 -10 0 12 #fcfcfc #000000 #000000;
#X connect 0 0 4 0;
#X connect 1 0 0 0;
#X connect 2 0 0 1;
#X connect 4 0 29 0;
#X connect 5 0 6 0;
#X connect 6 0 7 0;
#X connect 7 0 8 0;
#X connect 8 0 39 0;
#X connect 8 0 40 0;
#X connect 8 0 41 0;
#X connect 8 0 42 0;
#X connect 8 0 43 0;
#X connect 8 0 44 0;
#X connect 8 0 45 0;
#X connect 10 0 47 1;
#X connect 28 0 27 0;
#X connect 29 0 5 0;
#X connect 30 0 29 1;
#X connect 31 0 37 0;
#X connect 32 0 37 0;
#X connect 33 0 37 0;
#X connect 34 0 31 1;
#X connect 35 0 32 1;
#X connect 36 0 33 1;
#X connect 37 0 38 0;
#X connect 37 0 38 1;
#X connect 39 0 46 0;
#X connect 46 0 47 0;
#X connect 47 0 48 0;
#X connect 48 0 31 0;
