#N canvas 1187 25 625 424 12;
#X obj 38 35 noise~;
#X obj 38 59 lop~ 3000;
#X obj 38 83 hip~ 1000;
#X obj 231 161 *~;
#X obj 231 111 *~ 0.5;
#X obj 401 14 inlet;
#X obj 445 14 inlet;
#X obj 401 65 f;
#X obj 403 161 vline~;
#X obj 403 185 *~;
#X obj 232 363 outlet~;
#X floatatom 229 37 5 0 0 0 - - - 0;
#X obj 231 87 osc~;
#X obj 273 33 loadbang;
#X msg 273 57 180;
#X text 228 15 Freq;
#X msg 403 137 \$1 1 0 \, 0 \$2 1;
#X obj 401 89 pack f f;
#X floatatom 506 41 5 0 0 0 - - - 0;
#X obj 570 17 inlet;
#X obj 587 62 loadbang;
#X msg 587 86 150;
#X obj 204 2 r snarefreq;
#X obj 126 40 r snarehip1;
#X obj 126 64 r snarehip2;
#X obj 232 279 vcf~, f 8;
#X floatatom 258 216 5 0 0 0 - - - 0;
#X obj 258 239 sig~ 200;
#X floatatom 319 261 5 0 0 0 - - - 0;
#X obj 232 325 lop~;
#X floatatom 292 307 5 0 0 0 - - - 0;
#X obj 338 288 r snarelop;
#X obj 441 291 loadbang;
#X msg 441 315 20000;
#X obj 260 186 r snarevcffreq;
#X obj 348 239 r snarevcfq;
#X connect 0 0 1 0;
#X connect 1 0 2 0;
#X connect 2 0 3 0;
#X connect 3 0 25 0;
#X connect 4 0 3 0;
#X connect 5 0 7 0;
#X connect 6 0 7 1;
#X connect 7 0 17 0;
#X connect 8 0 9 0;
#X connect 8 0 9 1;
#X connect 9 0 3 1;
#X connect 11 0 12 0;
#X connect 12 0 4 0;
#X connect 13 0 14 0;
#X connect 14 0 12 0;
#X connect 16 0 8 0;
#X connect 17 0 16 0;
#X connect 18 0 17 1;
#X connect 19 0 18 0;
#X connect 20 0 21 0;
#X connect 21 0 18 0;
#X connect 22 0 11 0;
#X connect 23 0 1 1;
#X connect 24 0 2 1;
#X connect 25 0 29 0;
#X connect 26 0 27 0;
#X connect 27 0 25 1;
#X connect 28 0 25 2;
#X connect 29 0 10 0;
#X connect 30 0 29 1;
#X connect 31 0 30 0;
#X connect 32 0 33 0;
#X connect 33 0 30 0;
#X connect 34 0 26 0;
#X connect 35 0 28 0;
